<?xml version="1.0" encoding="utf-8"?>
<!-- Generator: Adobe Illustrator 28.3.0, SVG Export Plug-In . SVG Version: 6.00 Build 0)  -->
<svg version="1.1" id="Layer_1" xmlns="http://www.w3.org/2000/svg" xmlns:xlink="http://www.w3.org/1999/xlink" x="0px" y="0px"
	 viewBox="0 0 284.18 112.38" style="enable-background:new 0 0 284.18 112.38;" xml:space="preserve">
<style type="text/css">
	.st0{fill:#FFFFFF;}
	.st1{font-family:'Barlow-ExtraBold';}
	.st2{font-size:35.251px;}
	.st3{fill:#EFB933;stroke:#FFFFFF;stroke-miterlimit:10;}
</style>
<text transform="matrix(1 0 0 1 111.4891 70.1581)"><tspan x="0" y="0" class="st0 st1 st2">pay</tspan><tspan x="57.04" y="0" class="st3 st1 st2">2</tspan><tspan x="77.06" y="0" class="st0 st1 st2">us</tspan></text>
<g>
	<path class="st3" d="M105.37,55.43c-0.18-5.08-3.14-7.9-8.2-7.94c-4.42-0.04-8.84,0.06-13.26-0.03c-2.81-0.07-5.27,0.76-7.27,2.63
		c-2.4,2.25-4.51,4.82-6.97,7c-1.99,1.77-4.11,3.67-6.53,4.63c-4.77,1.88-9.72-1.66-9.54-6.61h6.96c0.18-3.7-2.05-6.68-5.62-7.41
		c-1.17-0.24-1.63-0.63-1.83-1.84c-0.58-3.45-3.99-5.99-7.28-5.57c-0.05,0.33-0.14,0.67-0.14,1.01c-0.01,4.48-0.16,8.96,0.03,13.43
		c0.58,13.77,9.95,22.65,23.74,22.65c9.01,0,18.03,0.01,27.04-0.01c0.88-0.01,1.8-0.04,2.61-0.33c1.57-0.55,2.46-1.69,2.43-3.65
		c-2.47,0-4.82,0.04-7.16-0.01c-2.24-0.05-3.36-1.07-3.7-3.43c3.48,0,6.84,0.03,10.19-0.01c3.02-0.03,4.44-1.4,4.51-4.43
		C105.45,62.15,105.49,58.79,105.37,55.43z M87.26,65.73c-0.93,0-1.68-0.58-1.68-1.3c0-0.72,0.75-1.3,1.68-1.3s1.69,0.58,1.69,1.3
		C88.95,65.15,88.19,65.73,87.26,65.73z"/>
	<path class="st3" d="M88.57,34.86c2.83-2.49,5.99-3.02,9.4-1.2c2.21,1.19,3.57,3.73,3.5,6.58c-0.95,0-1.94,0.11-2.88-0.05
		c-0.41-0.07-0.87-0.63-1.07-1.08c-0.87-1.96-2.18-2.77-4.16-2.44c-1.69,0.28-2.75,1.67-2.8,3.72c-0.03,1.06,0,2.11,0,3.35
		c-1.28,0-2.47,0-3.95,0c0-0.7,0-1.49,0-2.28c0-2.85-0.96-4.44-2.9-4.79c-2.22-0.4-3.49,0.54-4.57,3.49c-1.12,0-2.27,0-3.4,0
		c-0.49-2.18,0.77-4.81,2.98-6.31C81.52,31.94,84.84,32.27,88.57,34.86z"/>
</g>
</svg>
