<?xml version="1.0" encoding="utf-8"?>
<!-- Generator: Adobe Illustrator 28.3.0, SVG Export Plug-In . SVG Version: 6.00 Build 0)  -->
<svg version="1.1" id="Layer_1" xmlns="http://www.w3.org/2000/svg" xmlns:xlink="http://www.w3.org/1999/xlink" x="0px" y="0px"
	 viewBox="0 0 504.58 472.32" style="enable-background:new 0 0 504.58 472.32;" xml:space="preserve">
<style type="text/css">
	.st0{fill:#010101;}
	.st1{fill:#EFB933;stroke:#19190E;stroke-width:0.75;stroke-miterlimit:10;}
	.st2{fill:#EFB933;}
	.st3{fill:#19190E;}
	.st4{fill:#FFFFFF;}
</style>
<g>
	<g>
		<path class="st0" d="M213.15,225.87c0,1.67-0.25,3.15-0.74,4.44c-0.54,1.46-1.42,2.64-2.63,3.54c-1.21,0.91-2.57,1.36-4.07,1.36
			c-1.79,0-3.12-0.54-4.02-1.62c-0.07-0.09-0.14-0.13-0.19-0.11c-0.06,0.02-0.09,0.09-0.09,0.21v7.02c0,0.19-0.06,0.34-0.18,0.46
			c-0.12,0.12-0.27,0.18-0.46,0.18h-4.58c-0.19,0-0.34-0.06-0.46-0.18c-0.12-0.12-0.18-0.27-0.18-0.46V217.3
			c0-0.19,0.06-0.34,0.18-0.46c0.12-0.12,0.27-0.18,0.46-0.18h4.58c0.19,0,0.34,0.06,0.46,0.18c0.12,0.12,0.18,0.27,0.18,0.46v0.85
			c0,0.12,0.03,0.19,0.09,0.21c0.06,0.02,0.12-0.01,0.19-0.11c0.89-1.25,2.23-1.87,4.02-1.87c1.53,0,2.94,0.51,4.23,1.52
			c1.29,1.01,2.17,2.32,2.64,3.91C212.96,222.97,213.15,224.32,213.15,225.87z M206.88,225.76c0-1.2-0.2-2.17-0.6-2.93
			c-0.49-0.87-1.21-1.3-2.15-1.3c-0.89,0-1.59,0.45-2.08,1.34c-0.4,0.75-0.6,1.72-0.6,2.89c0,1.29,0.21,2.33,0.63,3.1
			c0.49,0.8,1.17,1.2,2.04,1.2c0.92,0,1.62-0.41,2.12-1.23C206.66,228.06,206.88,227.03,206.88,225.76z"/>
		<path class="st0" d="M227.18,217.18c1.27,0.53,2.27,1.26,3,2.19s1.09,1.96,1.09,3.08v11.81c0,0.19-0.06,0.34-0.18,0.46
			c-0.12,0.12-0.27,0.18-0.46,0.18h-4.58c-0.19,0-0.34-0.06-0.46-0.18c-0.12-0.12-0.18-0.27-0.18-0.46v-0.71
			c0-0.12-0.03-0.19-0.09-0.21c-0.06-0.02-0.12,0.01-0.19,0.11c-0.94,1.15-2.46,1.73-4.55,1.73c-1.86,0-3.34-0.44-4.44-1.32
			s-1.66-2.18-1.66-3.9c0-1.81,0.63-3.21,1.89-4.19c1.26-0.99,3.07-1.48,5.45-1.48h3.35c0.16,0,0.25-0.08,0.25-0.25v-0.6
			c0-0.63-0.21-1.13-0.62-1.5s-0.99-0.55-1.75-0.55c-0.54,0-1,0.09-1.39,0.26s-0.67,0.42-0.83,0.72c-0.12,0.16-0.23,0.29-0.33,0.37
			c-0.11,0.08-0.24,0.11-0.41,0.09l-4.72-0.6c-0.42-0.05-0.61-0.21-0.56-0.49c0.12-1.01,0.54-1.92,1.27-2.73
			c0.73-0.81,1.69-1.45,2.87-1.92c1.19-0.47,2.52-0.71,4-0.71C224.5,216.39,225.91,216.65,227.18,217.18z M224.55,230.29
			c0.58-0.46,0.86-1.06,0.86-1.82v-0.78c0-0.16-0.08-0.25-0.25-0.25h-2.04c-0.89,0-1.58,0.15-2.06,0.46
			c-0.48,0.31-0.72,0.76-0.72,1.37c0,0.52,0.18,0.93,0.53,1.23c0.35,0.31,0.85,0.46,1.48,0.46
			C223.24,230.98,223.98,230.75,224.55,230.29z"/>
		<path class="st0" d="M233.56,241.73c-0.05-0.12-0.07-0.27-0.07-0.46v-3.52c0-0.19,0.02-0.34,0.07-0.46
			c0.05-0.12,0.09-0.18,0.14-0.18h0.18c1.5,0,2.57-0.13,3.21-0.39c0.63-0.26,1.03-0.81,1.2-1.66c0.02-0.09,0.02-0.2,0-0.32
			l-5.57-17.38c-0.02-0.07-0.04-0.15-0.04-0.25c0-0.31,0.18-0.46,0.53-0.46h4.94c0.19,0,0.35,0.05,0.48,0.16
			c0.13,0.11,0.21,0.24,0.23,0.41l2.29,9.2c0.05,0.09,0.1,0.14,0.16,0.14s0.1-0.05,0.12-0.14l2.22-9.2c0.02-0.16,0.1-0.3,0.23-0.41
			c0.13-0.11,0.29-0.16,0.48-0.16h4.9c0.24,0,0.4,0.06,0.49,0.19c0.09,0.13,0.11,0.3,0.04,0.51l-5.85,17.87
			c-0.59,1.76-1.21,3.1-1.85,4c-0.65,0.9-1.59,1.57-2.82,2.01c-1.23,0.43-2.99,0.65-5.27,0.65h-0.25
			C233.66,241.91,233.61,241.85,233.56,241.73z"/>
		<path class="st1" d="M251.99,234.72c-0.12-0.12-0.18-0.27-0.18-0.46v-3.56c0-0.31,0.12-0.56,0.35-0.78
			c0.87-0.8,1.77-1.69,2.71-2.68c0.94-0.99,1.83-1.93,2.68-2.82c1.55-1.62,2.28-2.38,2.19-2.29c2.14-2.21,3.21-3.82,3.21-4.83
			c0-0.68-0.25-1.25-0.76-1.69c-0.5-0.45-1.16-0.67-1.96-0.67s-1.45,0.22-1.94,0.67c-0.49,0.45-0.74,1.03-0.74,1.76v0.63
			c0,0.19-0.06,0.34-0.18,0.46s-0.27,0.18-0.46,0.18h-4.65c-0.19,0-0.34-0.06-0.46-0.18c-0.12-0.12-0.18-0.27-0.18-0.46v-1.55
			c0.09-1.32,0.53-2.47,1.3-3.46c0.78-0.99,1.8-1.74,3.07-2.27c1.27-0.53,2.68-0.79,4.23-0.79c1.74,0,3.26,0.32,4.57,0.97
			c1.3,0.65,2.3,1.52,3,2.63c0.69,1.1,1.04,2.33,1.04,3.67c0,0.96-0.24,1.94-0.71,2.93c-0.47,0.99-1.18,2.03-2.12,3.14
			c-1.01,1.22-2.74,3.01-5.18,5.36l-0.99,0.95c-0.09,0.09-0.13,0.17-0.11,0.23c0.02,0.06,0.09,0.09,0.21,0.09h8.6
			c0.19,0,0.34,0.06,0.46,0.18c0.12,0.12,0.18,0.27,0.18,0.46v3.74c0,0.19-0.06,0.34-0.18,0.46c-0.12,0.12-0.27,0.18-0.46,0.18
			h-16.11C252.26,234.89,252.11,234.84,251.99,234.72z"/>
		<path class="st0" d="M282.63,216.85c0.12-0.12,0.27-0.18,0.46-0.18h4.58c0.19,0,0.34,0.06,0.46,0.18
			c0.12,0.12,0.18,0.27,0.18,0.46v16.96c0,0.19-0.06,0.34-0.18,0.46c-0.12,0.12-0.27,0.18-0.46,0.18h-4.58
			c-0.19,0-0.34-0.06-0.46-0.18c-0.12-0.12-0.18-0.27-0.18-0.46v-0.88c0-0.12-0.03-0.19-0.09-0.21c-0.06-0.02-0.12,0.01-0.19,0.11
			c-0.99,1.27-2.44,1.9-4.37,1.9c-1.79,0-3.23-0.56-4.34-1.69s-1.66-2.7-1.66-4.72V217.3c0-0.19,0.06-0.34,0.18-0.46
			s0.27-0.18,0.46-0.18h4.58c0.19,0,0.34,0.06,0.46,0.18c0.12,0.12,0.18,0.27,0.18,0.46v10.12c0,0.82,0.21,1.48,0.63,1.97
			c0.42,0.49,1,0.74,1.73,0.74c0.66,0,1.2-0.2,1.64-0.6c0.43-0.4,0.7-0.93,0.79-1.59V217.3
			C282.45,217.12,282.51,216.96,282.63,216.85z"/>
		<path class="st0" d="M294.67,234.49c-1.23-0.46-2.19-1.1-2.85-1.94c-0.67-0.83-1-1.79-1-2.87v-0.18c0-0.19,0.06-0.34,0.18-0.46
			c0.12-0.12,0.27-0.18,0.46-0.18h4.33c0.42,0,0.63,0.07,0.63,0.21v0.21c0,0.45,0.24,0.82,0.72,1.11c0.48,0.29,1.1,0.44,1.85,0.44
			c0.66,0,1.19-0.11,1.59-0.33c0.4-0.22,0.6-0.52,0.6-0.9c0-0.38-0.21-0.65-0.63-0.83c-0.42-0.18-1.09-0.35-2.01-0.51
			c-1.48-0.28-2.68-0.62-3.6-1.02c-1.17-0.49-2.12-1.12-2.84-1.87s-1.08-1.76-1.08-3.03c0-1.83,0.71-3.28,2.13-4.35
			c1.42-1.07,3.3-1.6,5.62-1.6c1.57,0,2.96,0.25,4.14,0.76c1.19,0.51,2.11,1.22,2.77,2.13c0.66,0.92,0.99,1.97,0.99,3.17
			c0,0.12-0.06,0.22-0.18,0.3c-0.12,0.08-0.27,0.12-0.46,0.12h-4.2c-0.42,0-0.63-0.07-0.63-0.21v-0.21c0-0.45-0.21-0.81-0.63-1.09
			c-0.42-0.28-1-0.42-1.73-0.42c-0.66,0-1.19,0.11-1.6,0.33c-0.41,0.22-0.62,0.53-0.62,0.93c0,0.4,0.22,0.69,0.67,0.86
			c0.45,0.18,1.2,0.37,2.26,0.58c1.43,0.28,2.4,0.51,2.89,0.67c1.43,0.47,2.56,1.1,3.37,1.9c0.81,0.8,1.22,1.87,1.22,3.21
			c0,1.83-0.72,3.25-2.17,4.25c-1.45,1-3.39,1.5-5.83,1.5C297.35,235.18,295.9,234.95,294.67,234.49z"/>
	</g>
	<g>
		<g>
			<path class="st2" d="M173.16,234.68c0.34,2.36,1.46,3.38,3.7,3.43c2.34,0.05,4.69,0.01,7.16,0.01c0.03,1.96-0.86,3.1-2.42,3.65
				c-0.81,0.28-1.73,0.32-2.61,0.32c-9.02,0.02-18.03,0.02-27.05,0.02c-13.79,0-23.16-8.89-23.74-22.65
				c-0.19-4.47-0.04-8.95-0.03-13.43c0-0.34,0.1-0.68,0.14-1.01c3.29-0.42,6.7,2.11,7.28,5.56c0.21,1.22,0.66,1.6,1.83,1.84
				c3.56,0.74,5.79,3.71,5.62,7.41c-1.15,0-2.32,0-3.48,0c-1.16,0-2.32,0-3.48,0c-0.18,4.96,4.77,8.5,9.54,6.61
				c2.42-0.95,4.54-2.86,6.53-4.62c2.46-2.18,4.57-4.75,6.97-7c2-1.88,4.46-2.7,7.27-2.64c4.42,0.1,8.84,0,13.26,0.03
				c5.06,0.04,8.02,2.86,8.2,7.95c0.12,3.35,0.08,6.72,0.01,10.07c-0.06,3.03-1.48,4.4-4.51,4.43
				C180,234.71,176.64,234.68,173.16,234.68z"/>
			<path class="st3" d="M161.42,242.62c-2.42,0-4.85,0-7.27,0l-2.22,0c-14.14,0-23.65-9.08-24.24-23.13
				c-0.13-3.16-0.1-6.37-0.06-9.48c0.01-1.32,0.03-2.65,0.03-3.97c0-0.28,0.05-0.55,0.1-0.79c0.02-0.1,0.04-0.19,0.05-0.29
				l0.06-0.37l0.37-0.05c3.62-0.46,7.21,2.27,7.83,5.98c0.16,0.97,0.42,1.22,1.44,1.43c3.79,0.78,6.21,3.97,6.02,7.92l-0.02,0.48
				h-6.94c0.08,1.98,1.05,3.8,2.68,4.95c1.81,1.28,4.06,1.54,6.18,0.7c2.29-0.91,4.32-2.71,6.28-4.45l0.1-0.09
				c1.33-1.18,2.58-2.5,3.8-3.78c1.02-1.07,2.07-2.18,3.16-3.21c2.04-1.91,4.6-2.84,7.63-2.77c2.64,0.06,5.33,0.05,7.93,0.04
				c1.77-0.01,3.55-0.02,5.32,0c5.34,0.04,8.51,3.11,8.69,8.43c0.12,3.51,0.07,7.08,0.01,10.1c-0.07,3.27-1.71,4.88-5,4.92
				c-2.33,0.03-4.67,0.02-7.04,0.01l-2.55,0c0.38,1.7,1.29,2.39,3.11,2.43c1.62,0.03,3.24,0.03,4.91,0.02
				c0.74,0,1.48-0.01,2.24-0.01h0.49l0.01,0.49c0.03,2.09-0.9,3.48-2.76,4.13c-0.87,0.31-1.85,0.35-2.77,0.35
				C173.13,242.61,167.28,242.62,161.42,242.62z M128.74,205.49c-0.03,0.18-0.07,0.36-0.07,0.55c0,1.33-0.02,2.65-0.03,3.98
				c-0.03,3.09-0.07,6.3,0.06,9.43c0.56,13.46,9.69,22.17,23.24,22.17l2.22,0c8.28,0,16.55,0,24.83-0.02c0.84,0,1.71-0.04,2.44-0.29
				c1.3-0.46,1.97-1.31,2.08-2.68c-0.58,0-1.15,0-1.72,0.01c-1.67,0.01-3.3,0.02-4.93-0.02c-2.48-0.05-3.81-1.28-4.18-3.86
				l-0.08-0.57l3.73,0.01c2.37,0.01,4.7,0.01,7.03-0.01c2.76-0.03,3.96-1.21,4.01-3.94c0.06-3.01,0.11-6.56-0.01-10.05
				c-0.17-4.78-2.9-7.43-7.7-7.46c-1.77-0.01-3.54-0.01-5.31,0c-2.61,0.01-5.3,0.02-7.96-0.04c-2.76-0.07-5.08,0.78-6.92,2.5
				c-1.08,1.01-2.12,2.11-3.12,3.17c-1.23,1.29-2.5,2.63-3.86,3.84l-0.1,0.09c-2.03,1.8-4.12,3.66-6.58,4.63
				c-2.4,0.95-5.06,0.64-7.12-0.81c-2.03-1.44-3.19-3.78-3.1-6.28l0.02-0.48h6.95c-0.04-3.22-2.1-5.77-5.23-6.42
				c-1.41-0.29-2-0.88-2.23-2.25C134.59,207.66,131.66,205.32,128.74,205.49z"/>
		</g>
		<g>
			<path class="st2" d="M171.05,199.59c2.83-2.49,5.99-3.02,9.4-1.2c2.21,1.19,3.57,3.73,3.5,6.58c-0.95,0-1.94,0.11-2.88-0.05
				c-0.41-0.07-0.87-0.63-1.07-1.08c-0.87-1.96-2.18-2.77-4.16-2.44c-1.69,0.28-2.75,1.67-2.8,3.72c-0.03,1.06,0,2.11,0,3.35
				c-1.28,0-2.47,0-3.95,0c0-0.7,0-1.49,0-2.28c0-2.85-0.96-4.44-2.9-4.79c-2.22-0.4-3.49,0.54-4.57,3.49c-1.12,0-2.27,0-3.4,0
				c-0.49-2.18,0.77-4.81,2.98-6.31C164.01,196.68,167.33,197,171.05,199.59z"/>
			<path class="st3" d="M173.53,208.97h-4.95l0-2.78c0-2.59-0.82-3.99-2.49-4.3c-1.69-0.31-2.89,0.11-4.01,3.17l-0.12,0.33h-4.15
				l-0.09-0.39c-0.53-2.34,0.81-5.22,3.19-6.83c2.93-1.99,6.33-1.72,10.11,0.79c3.01-2.5,6.26-2.84,9.67-1.01
				c2.4,1.29,3.84,3.99,3.76,7.03l-0.01,0.49h-0.49c-0.27,0-0.54,0.01-0.81,0.02c-0.7,0.02-1.43,0.05-2.15-0.08
				c-0.71-0.12-1.25-0.95-1.44-1.37c-0.79-1.77-1.91-2.43-3.62-2.15c-1.47,0.24-2.33,1.42-2.38,3.24c-0.02,0.71-0.01,1.42-0.01,2.19
				L173.53,208.97z M169.58,207.97h2.95l0-0.64c0-0.78-0.01-1.5,0.01-2.22c0.06-2.27,1.29-3.88,3.22-4.2
				c2.18-0.37,3.72,0.53,4.7,2.73c0.18,0.41,0.55,0.76,0.69,0.79c0.62,0.1,1.27,0.08,1.95,0.06c0.12,0,0.23-0.01,0.35-0.01
				c-0.08-2.46-1.29-4.6-3.23-5.64c-3.11-1.67-6.08-1.29-8.83,1.13l-0.29,0.26l-0.32-0.22c-3.53-2.45-6.66-2.79-9.29-1
				c-1.92,1.3-3.06,3.51-2.84,5.39h2.63c1.14-2.9,2.61-3.91,5-3.48c2.19,0.4,3.31,2.17,3.31,5.28L169.58,207.97z"/>
		</g>
	</g>
	<g>
		<ellipse class="st4" cx="169.74" cy="229.16" rx="1.94" ry="1.55"/>
		<path class="st3" d="M169.74,227.86c0.93,0,1.69,0.58,1.69,1.3c0,0.72-0.75,1.3-1.69,1.3s-1.69-0.58-1.69-1.3
			C168.06,228.45,168.81,227.86,169.74,227.86 M169.74,227.36c-1.21,0-2.19,0.81-2.19,1.8s0.98,1.8,2.19,1.8
			c1.21,0,2.19-0.81,2.19-1.8S170.95,227.36,169.74,227.36L169.74,227.36z"/>
	</g>
</g>
</svg>
