<?xml version="1.0" encoding="utf-8"?>
<!-- Generator: Adobe Illustrator 28.3.0, SVG Export Plug-In . SVG Version: 6.00 Build 0)  -->
<svg version="1.1" id="Layer_1" xmlns="http://www.w3.org/2000/svg" xmlns:xlink="http://www.w3.org/1999/xlink" x="0px" y="0px"
	 viewBox="0 0 268.49 132.88" style="enable-background:new 0 0 268.49 132.88;" xml:space="preserve">
<style type="text/css">
	.st0{fill:#EFB933;}
	.st1{fill:#19190E;}
	.st2{fill:#FFFFFF;}
</style>
<g>
	<g>
		<path class="st0" d="M141.85,80.38c0.34,2.36,1.46,3.38,3.7,3.43c2.34,0.05,4.69,0.01,7.16,0.01c0.03,1.96-0.86,3.1-2.42,3.65
			c-0.81,0.28-1.73,0.32-2.61,0.32c-9.02,0.02-18.03,0.02-27.05,0.02c-13.79,0-23.16-8.89-23.74-22.65
			c-0.19-4.47-0.04-8.95-0.03-13.43c0-0.34,0.1-0.68,0.14-1.01c3.29-0.42,6.7,2.11,7.28,5.56c0.21,1.22,0.66,1.6,1.83,1.84
			c3.56,0.74,5.79,3.71,5.62,7.41c-1.15,0-2.32,0-3.48,0c-1.16,0-2.32,0-3.48,0c-0.18,4.96,4.77,8.5,9.54,6.61
			c2.42-0.95,4.54-2.86,6.53-4.62c2.46-2.18,4.57-4.75,6.97-7c2-1.88,4.46-2.7,7.27-2.64c4.42,0.1,8.84,0,13.26,0.03
			c5.06,0.04,8.02,2.86,8.2,7.95c0.12,3.35,0.08,6.72,0.01,10.07c-0.06,3.03-1.48,4.4-4.51,4.43
			C148.69,80.41,145.33,80.38,141.85,80.38z"/>
		<path class="st1" d="M130.12,88.31c-2.42,0-4.85,0-7.27,0l-2.22,0c-14.14,0-23.65-9.08-24.24-23.13c-0.13-3.16-0.1-6.37-0.06-9.48
			c0.01-1.32,0.03-2.65,0.03-3.97c0-0.28,0.05-0.55,0.1-0.79c0.02-0.1,0.04-0.19,0.05-0.29l0.06-0.37l0.37-0.05
			c3.62-0.46,7.21,2.27,7.83,5.98c0.16,0.97,0.42,1.22,1.44,1.43c3.79,0.78,6.21,3.97,6.02,7.92l-0.02,0.48h-6.94
			c0.08,1.98,1.05,3.8,2.68,4.95c1.81,1.28,4.06,1.54,6.18,0.7c2.29-0.91,4.32-2.71,6.28-4.45l0.1-0.09c1.33-1.18,2.58-2.5,3.8-3.78
			c1.02-1.07,2.07-2.18,3.16-3.21c2.04-1.91,4.6-2.84,7.63-2.77c2.64,0.06,5.33,0.05,7.93,0.04c1.77-0.01,3.55-0.02,5.32,0
			c5.34,0.04,8.51,3.11,8.69,8.43c0.12,3.51,0.07,7.08,0.01,10.1c-0.07,3.27-1.71,4.88-5,4.92c-2.33,0.03-4.67,0.02-7.04,0.01
			l-2.55,0c0.38,1.7,1.29,2.39,3.11,2.43c1.62,0.03,3.24,0.03,4.91,0.02c0.74,0,1.48-0.01,2.24-0.01h0.49l0.01,0.49
			c0.03,2.09-0.9,3.48-2.76,4.13c-0.87,0.31-1.85,0.35-2.77,0.35C141.82,88.31,135.97,88.31,130.12,88.31z M97.43,51.18
			c-0.03,0.18-0.07,0.36-0.07,0.55c0,1.33-0.02,2.65-0.03,3.98c-0.03,3.09-0.07,6.3,0.06,9.43c0.56,13.46,9.69,22.17,23.24,22.17
			l2.22,0c8.28,0,16.55,0,24.83-0.02c0.84,0,1.71-0.04,2.44-0.29c1.3-0.46,1.97-1.31,2.08-2.68c-0.58,0-1.15,0-1.72,0.01
			c-1.67,0.01-3.3,0.02-4.93-0.02c-2.48-0.05-3.81-1.28-4.18-3.86l-0.08-0.57l3.73,0.01c2.37,0.01,4.7,0.01,7.03-0.01
			c2.76-0.03,3.96-1.21,4.01-3.94c0.06-3.01,0.11-6.56-0.01-10.05c-0.17-4.78-2.9-7.43-7.7-7.46c-1.77-0.01-3.54-0.01-5.31,0
			c-2.61,0.01-5.3,0.02-7.96-0.04c-2.76-0.07-5.08,0.78-6.92,2.5c-1.08,1.01-2.12,2.11-3.12,3.17c-1.23,1.29-2.5,2.63-3.86,3.84
			l-0.1,0.09c-2.03,1.8-4.12,3.66-6.58,4.63c-2.4,0.95-5.06,0.64-7.12-0.81c-2.03-1.44-3.19-3.78-3.1-6.28l0.02-0.48h6.95
			c-0.04-3.22-2.1-5.77-5.23-6.42c-1.41-0.29-2-0.88-2.23-2.25C103.28,53.35,100.36,51.01,97.43,51.18z"/>
	</g>
	<g>
		<path class="st0" d="M139.74,45.29c2.83-2.49,5.99-3.02,9.4-1.2c2.21,1.19,3.57,3.73,3.5,6.58c-0.95,0-1.94,0.11-2.88-0.05
			c-0.41-0.07-0.87-0.63-1.07-1.08c-0.87-1.96-2.18-2.77-4.16-2.44c-1.69,0.28-2.75,1.67-2.8,3.72c-0.03,1.06,0,2.11,0,3.35
			c-1.28,0-2.47,0-3.95,0c0-0.7,0-1.49,0-2.28c0-2.85-0.96-4.44-2.9-4.79c-2.22-0.4-3.49,0.54-4.57,3.49c-1.12,0-2.27,0-3.4,0
			c-0.49-2.18,0.77-4.81,2.98-6.31C132.7,42.38,136.02,42.7,139.74,45.29z"/>
		<path class="st1" d="M142.22,54.67h-4.95l0-2.78c0-2.59-0.82-3.99-2.49-4.3c-1.69-0.31-2.89,0.11-4.01,3.17l-0.12,0.33h-4.15
			l-0.09-0.39c-0.53-2.34,0.81-5.22,3.19-6.83c2.93-1.99,6.33-1.72,10.11,0.79c3.01-2.5,6.26-2.84,9.67-1.01
			c2.4,1.29,3.84,3.99,3.76,7.03l-0.01,0.49h-0.49c-0.27,0-0.54,0.01-0.81,0.02c-0.7,0.02-1.43,0.05-2.15-0.08
			c-0.71-0.12-1.25-0.95-1.44-1.37c-0.79-1.77-1.91-2.43-3.62-2.15c-1.47,0.24-2.33,1.42-2.38,3.24c-0.02,0.71-0.01,1.42-0.01,2.19
			L142.22,54.67z M138.27,53.67h2.95l0-0.64c0-0.78-0.01-1.5,0.01-2.22c0.06-2.27,1.29-3.88,3.22-4.2c2.18-0.37,3.72,0.53,4.7,2.73
			c0.18,0.41,0.55,0.76,0.69,0.79c0.62,0.1,1.27,0.08,1.95,0.06c0.12,0,0.23-0.01,0.35-0.01c-0.08-2.46-1.29-4.6-3.23-5.64
			c-3.11-1.67-6.08-1.29-8.83,1.13l-0.29,0.26l-0.32-0.22c-3.53-2.45-6.66-2.79-9.29-1c-1.92,1.3-3.06,3.51-2.84,5.39h2.63
			c1.14-2.9,2.61-3.91,5-3.48c2.19,0.4,3.31,2.17,3.31,5.28L138.27,53.67z"/>
	</g>
</g>
<g>
	<ellipse class="st2" cx="138.44" cy="74.86" rx="1.94" ry="1.55"/>
	<path class="st1" d="M138.44,73.56c0.93,0,1.69,0.58,1.69,1.3c0,0.72-0.75,1.3-1.69,1.3s-1.69-0.58-1.69-1.3
		C136.75,74.14,137.5,73.56,138.44,73.56 M138.44,73.06c-1.21,0-2.19,0.81-2.19,1.8s0.98,1.8,2.19,1.8c1.21,0,2.19-0.81,2.19-1.8
		S139.64,73.06,138.44,73.06L138.44,73.06z"/>
</g>
</svg>
